<?xml version="1.0" encoding="UTF-8" standalone="no"?>
<!-- Created with Inkscape (http://www.inkscape.org/) -->

<svg
   version="1.1"
   id="svg2"
   xml:space="preserve"
   width="734.66132"
   height="123.8"
   viewBox="0 0 734.66132 123.8"
   xmlns="http://www.w3.org/2000/svg"
   xmlns:svg="http://www.w3.org/2000/svg"><defs
     id="defs6" /><g
     id="g8"
     transform="matrix(1.3333333,0,0,-1.3333333,0,123.8)"><g
       id="g10"
       transform="translate(316.277,15.143)"><g
         id="g12"><g
           id="g14"><g
             id="g16"><g
               id="g18"><path
                 d="M -30.48299,-14.94415 H 30.48298 V 14.94417 H -30.48299 Z"
                 style="fill:#ffffff;fill-opacity:1;fill-rule:nonzero;stroke:#000000;stroke-width:0.3985;stroke-linecap:butt;stroke-linejoin:miter;stroke-miterlimit:10;stroke-dasharray:none;stroke-opacity:1"
                 id="path20" /></g><g
               id="g22"
               transform="translate(-27.162,-3.459)"><g
                 id="g24"><g
                   id="g26"
                   transform="translate(-289.115,-11.684)"><text
                     transform="matrix(1,0,0,-1,289.115,11.684)"
                     style="font-variant:normal;font-weight:normal;font-size:9.9626px;font-family:CMR10;-inkscape-font-specification:CMR10;writing-mode:lr-tb;fill:#000000;fill-opacity:1;fill-rule:nonzero;stroke:none"
                     id="text30"><tspan
                       x="0 5.5352206 9.9625998 15.497821 19.427071 24.408369 31.628265 39.100216 44.36047 49.895691"
                       y="0"
                       id="tspan28">SensorNode</tspan></text><g
                     id="g32"
                     transform="translate(289.115,11.684)" /></g></g><g
                 id="g34"
                 transform="translate(27.162,3.459)" /></g></g><g
             id="g36"><g
               id="g38"
               transform="translate(34.65,29.764)"><g
                 id="g40" /><g
                 id="g42"
                 transform="translate(-34.65,-29.764)" /></g><g
               id="g44"><path
                 d="M 30.48299,0 V 59.52805"
                 style="fill:none;stroke:#000000;stroke-width:0.3985;stroke-linecap:butt;stroke-linejoin:miter;stroke-miterlimit:10;stroke-dasharray:none;stroke-opacity:1"
                 id="path46" /><g
                 id="g48"><path
                   d="m 30.48299,59.52805 h 9.92134 L 30.48299,39.68536 20.56165,59.52805 h 9.92134"
                   style="fill:none;stroke:#000000;stroke-width:0.797;stroke-linecap:butt;stroke-linejoin:miter;stroke-miterlimit:10;stroke-dasharray:none;stroke-opacity:1"
                   id="path50" /></g></g></g><g
             id="g52"><g
               id="g54"><path
                 d="m 172.6156,-14.94415 h 61.90695 V 14.94417 H 172.6156 Z"
                 style="fill:#ffffff;fill-opacity:1;fill-rule:nonzero;stroke:#000000;stroke-width:0.3985;stroke-linecap:butt;stroke-linejoin:miter;stroke-miterlimit:10;stroke-dasharray:none;stroke-opacity:1"
                 id="path56" /></g><g
               id="g58"
               transform="translate(175.934,-3.404)"><g
                 id="g60"><g
                   id="g62"
                   transform="translate(-492.211,-11.739)"><text
                     transform="matrix(1,0,0,-1,492.211,11.739)"
                     style="font-variant:normal;font-weight:normal;font-size:9.9626px;font-family:CMR10;-inkscape-font-specification:CMR10;writing-mode:lr-tb;fill:#000000;fill-opacity:1;fill-rule:nonzero;stroke:none"
                     id="text66"><tspan
                       x="0 7.0565095 12.037809 15.967059 23.711985 29.247206 33.121658 38.102959 41.977417 44.745026 49.726326"
                       y="0"
                       id="tspan64">BaseStation</tspan></text><g
                     id="g68"
                     transform="translate(492.211,11.739)" /></g></g><g
                 id="g70"
                 transform="translate(-175.934,3.404)" /></g></g><g
             id="g72"><g
               id="g74"
               transform="matrix(-1,0,0,1,168.446,29.764)"><g
                 id="g76" /><g
                 id="g78"
                 transform="translate(-168.446,-29.764)" /></g><g
               id="g80"><path
                 d="M 172.6156,0 V 59.52805"
                 style="fill:none;stroke:#000000;stroke-width:0.3985;stroke-linecap:butt;stroke-linejoin:miter;stroke-miterlimit:10;stroke-dasharray:none;stroke-opacity:1"
                 id="path82" /><g
                 id="g84"><path
                   d="m 172.6156,59.52805 h -9.92134 l 9.92134,-19.84269 9.92134,19.84269 h -9.92134"
                   style="fill:none;stroke:#000000;stroke-width:0.797;stroke-linecap:butt;stroke-linejoin:miter;stroke-miterlimit:10;stroke-dasharray:none;stroke-opacity:1"
                   id="path86" /></g></g></g><path
             d="m 62.92708,57.5222 c 0.11607,-0.54614 0.11607,-1.111 0,-1.65715 m 3.89802,2.48572 c 0.23217,-1.09227 0.23217,-2.22202 0,-3.31429 m 3.89804,4.14286 c 0.34826,-1.63842 0.34826,-3.33301 0,-4.97142 m 3.89803,5.79998 c 0.46434,-2.18454 0.46434,-4.44401 0,-6.62855 m 3.89803,7.45712 c 0.58042,-2.73068 0.58042,-5.55501 0,-8.28569 m 3.89804,9.11426 c 0.69651,-3.27681 0.69651,-6.666 0,-9.94283 m 3.89802,10.77139 c 0.81261,-3.82296 0.81261,-7.77699 0,-11.59995 m 3.89803,12.42852 c 0.92869,-4.36909 0.92869,-8.888 0,-13.25709 m 3.89804,14.08566 c 1.04478,-4.91524 1.04478,-9.99899 0,-14.91423 m 3.89802,15.7428 c 1.16088,-5.46137 1.16088,-11.11 0,-16.57137 m 3.89803,17.39994 c 1.27695,-6.00751 1.27695,-12.221 0,-18.2285 m 3.89802,19.05706 c 1.39306,-6.55363 1.39306,-13.33198 0,-19.88563 m 3.89805,20.71422 c 1.50912,-7.09981 1.50912,-14.443 0,-21.54279 m 3.89802,22.37136 c 1.62521,-7.64594 1.62521,-15.554 0,-23.19993 m 3.89803,24.02849 c 1.74131,-8.19208 1.74131,-16.66499 0,-24.85707 m 3.89804,25.68564 c 1.85739,-8.73821 1.85739,-17.776 0,-26.51421 m 3.89802,27.34278 c 1.97348,-9.28435 1.97348,-18.887 0,-28.17134 m 3.89803,28.9999 c 2.08958,-9.83049 2.08958,-19.99798 0,-29.82847 m 3.89804,30.65704 c 2.20566,-10.37662 2.20566,-21.10899 0,-31.48561 m 3.89802,32.31418 c 2.32174,-10.92276 2.32174,-22.21999 0,-33.14275 m 3.89803,33.97132 c 2.43784,-11.46889 2.43784,-23.331 0,-34.79988"
             style="fill:none;stroke:#000000;stroke-width:0.3985;stroke-linecap:butt;stroke-linejoin:miter;stroke-miterlimit:10;stroke-dasharray:none;stroke-opacity:1"
             id="path88" /><g
             id="g90"><g
               id="g92"
               transform="translate(101.548,74.386)"><g
                 id="g94" /><g
                 id="g96"
                 transform="translate(-101.548,-74.386)" /></g></g></g></g></g></g></svg>
