<?xml version="1.0" encoding="UTF-8" standalone="no"?>
<!-- Created with Inkscape (http://www.inkscape.org/) -->

<svg
   version="1.1"
   id="svg2"
   xml:space="preserve"
   width="385.10532"
   height="182.49733"
   viewBox="0 0 385.10532 182.49733"
   xmlns="http://www.w3.org/2000/svg"
   xmlns:svg="http://www.w3.org/2000/svg"><defs
     id="defs6" /><g
     id="g8"
     transform="matrix(1.3333333,0,0,-1.3333333,0,182.49733)"><g
       id="g10"
       transform="translate(8.41,1.469)"><g
         id="g12"><g
           id="g14"><path
             d="m 0,90.71013 9.97914,0.0095 m 25.40148,0 9.97444,-0.0095 m 0,0 0.0047,11.34946 m 0,0 -0.0047,11.32807 m 0,0 67.13734,0.0119 m 6.35027,0 67.11303,-0.0119 m 0,0 -0.089,-16.996 m 0,0 -0.12809,-17.01616 m -140.38353,11.33463 9.98391,0.0095 m 25.40148,0 9.96968,-0.0095 m 0,0 0.0095,-42.17522 m 0,-6.35023 L 90.71013,0 M 0,0 h 136.0795 m 0,0 H 272.1304 M 90.71013,90.71013 111.2485,90.60857 m 0,0 20.51505,-0.12059 m 0,-22.22495 -0.10307,-14.28302 m 0,0 -0.13074,-14.29434 m 0,0 27.22966,0.0041 m 0,0 27.1963,-0.0041 m -0.21711,39.68983 0.0586,-7.1389 m 0.13902,-25.39952 0.0195,-7.15141 m 0,0 0.0195,-7.14003 m 0,-25.40147 L 185.9557,0 m -0.21711,79.3755 43.21998,0.0063 m 0,0 43.17183,-0.01041"
             style="fill:none;stroke:#000000;stroke-width:0.3985;stroke-linecap:butt;stroke-linejoin:miter;stroke-miterlimit:10;stroke-dasharray:none;stroke-opacity:1"
             id="path16" /><g
             id="g18"><g
               id="g20"><path
                 d="m 177.63292,79.37135 -37.78037,22.22379 V 57.14755 Z"
                 style="fill:none;stroke:#000000;stroke-width:0.797;stroke-linecap:butt;stroke-linejoin:miter;stroke-miterlimit:10;stroke-dasharray:none;stroke-opacity:1"
                 id="path22" /></g><g
               id="g24"
               transform="matrix(0.8,0,0,0.8,139.851,88.49)"><g
                 id="g26"
                 transform="translate(-148.261,-89.959)"><text
                   transform="matrix(1,0,0,-1,151.582,89.959)"
                   style="font-variant:normal;font-weight:normal;font-size:9.9626px;font-family:CMBSY10;-inkscape-font-specification:CMBSY10;writing-mode:lr-tb;fill:#000000;fill-opacity:1;fill-rule:nonzero;stroke:none"
                   id="text30"><tspan
                     x="0"
                     y="0"
                     id="tspan28">−</tspan></text><g
                   id="g32"
                   transform="translate(148.261,89.959)" /></g><g
                 id="g34"
                 transform="translate(-139.851,-88.49)" /></g><g
               id="g36"
               transform="matrix(0.8,0,0,0.8,139.851,66.266)"><g
                 id="g38"
                 transform="translate(-148.261,-67.735)"><text
                   transform="matrix(1,0,0,-1,151.582,67.735)"
                   style="font-variant:normal;font-weight:normal;font-size:9.9626px;font-family:CMBX10;-inkscape-font-specification:CMBX10;writing-mode:lr-tb;fill:#000000;fill-opacity:1;fill-rule:nonzero;stroke:none"
                   id="text42"><tspan
                     x="0"
                     y="0"
                     id="tspan40">+</tspan></text><g
                   id="g44"
                   transform="translate(148.261,67.735)" /></g><g
                 id="g46"
                 transform="translate(-139.851,-66.266)" /></g><path
               d="m 131.75664,90.48323 h 8.09591 m -8.09591,-22.22377 h 8.09591 m 45.87627,11.11189 h -8.09592"
               style="fill:none;stroke:#000000;stroke-width:0.3985;stroke-linecap:square;stroke-linejoin:miter;stroke-miterlimit:10;stroke-dasharray:none;stroke-opacity:1"
               id="path48" /><g
               id="g50"
               transform="matrix(0.8,0,0,0.8,158.741,79.37)"><g
                 id="g52" /><g
                 id="g54"
                 transform="translate(-158.741,-79.37)" /></g></g><g
             id="g56" /><g
             id="g58" /><g
             id="g60"><path
               d="m 9.57959,90.71013 2.54829,4.76228 4.29956,-9.52458 4.29955,9.52458 4.29953,-9.52458 4.29955,9.52458 4.29956,-9.52458 2.14977,4.7623"
               style="fill:none;stroke:#000000;stroke-width:0.797;stroke-linecap:butt;stroke-linejoin:bevel;stroke-miterlimit:10;stroke-dasharray:none;stroke-opacity:1"
               id="path62" /><g
               id="g64"
               transform="matrix(0.8,0,0,0.8,22.677,90.709)"><g
                 id="g66" /><g
                 id="g68"
                 transform="translate(-22.677,-90.709)" /></g></g><g
             id="g70" /><g
             id="g72" /><g
             id="g74"><g
               id="g76"
               transform="matrix(0.8,0,0,0.8,0,90.709)"><g
                 id="g78" /><g
                 id="g80"
                 transform="translate(0,-90.709)" /></g><g
               id="g82"><g
                 id="g84"><path
                   d="m 1.26971,90.71013 c 0,0.70125 -0.56846,1.26971 -1.26971,1.26971 -0.70125,0 -1.26971,-0.56846 -1.26971,-1.26971 0,-0.70126 0.56846,-1.26973 1.26971,-1.26973 0.70125,0 1.26971,0.56847 1.26971,1.26973 z"
                   style="fill:#ffffff;fill-opacity:1;fill-rule:nonzero;stroke:#000000;stroke-width:0.3985;stroke-linecap:butt;stroke-linejoin:miter;stroke-miterlimit:10;stroke-dasharray:none;stroke-opacity:1"
                   id="path86" /></g></g></g><g
             id="g88" /><g
             id="g90" /><g
             id="g92"><g
               id="g94"
               transform="matrix(0.8,0,0,0.8,17.867,99.18)"><g
                 id="g96"><g
                   id="g98"
                   transform="translate(-26.277,-100.649)"><text
                     transform="matrix(1,0,0,-1,26.277,100.649)"
                     style="font-variant:normal;font-weight:normal;font-size:9.9626px;font-family:CMMI10;-inkscape-font-specification:CMMI10;writing-mode:lr-tb;fill:#000000;fill-opacity:1;fill-rule:nonzero;stroke:none"
                     id="text102"><tspan
                       x="0"
                       y="0"
                       id="tspan100">R</tspan></text><text
                     transform="matrix(1,0,0,-1,33.842,99.155)"
                     style="font-variant:normal;font-weight:normal;font-size:6.9738px;font-family:CMR7;-inkscape-font-specification:CMR7;writing-mode:lr-tb;fill:#000000;fill-opacity:1;fill-rule:nonzero;stroke:none"
                     id="text106"><tspan
                       x="0"
                       y="0"
                       id="tspan104">1</tspan></text><g
                     id="g108"
                     transform="translate(26.277,100.649)" /></g></g><g
                 id="g110"
                 transform="translate(-17.867,-99.18)" /></g></g><g
             id="g112" /><g
             id="g114" /><g
             id="g116"><g
               id="g118"
               transform="matrix(0,0.8,-0.8,0,45.355,102.048)"><g
                 id="g120" /><g
                 id="g122"
                 transform="translate(-45.355,-102.048)" /></g></g><g
             id="g124" /><g
             id="g126" /><g
             id="g128" /><g
             id="g130" /><g
             id="g132"><g
               id="g134" /><path
               d="m 112.4806,122.91225 v -19.04921 m 6.34957,19.04921 v -19.04921"
               style="fill:none;stroke:#000000;stroke-width:0.797;stroke-linecap:butt;stroke-linejoin:miter;stroke-miterlimit:10;stroke-dasharray:none;stroke-opacity:1"
               id="path136" /><g
               id="g138"
               transform="matrix(0.8,0,0,0.8,115.654,113.386)"><g
                 id="g140" /><g
                 id="g142"
                 transform="translate(-115.654,-113.386)" /></g></g><g
             id="g144" /><g
             id="g146" /><g
             id="g148" /><g
             id="g150" /><g
             id="g152"><g
               id="g154"
               transform="matrix(0.8,0,0,0.8,111.036,127.1)"><g
                 id="g156"><g
                   id="g158"
                   transform="translate(-119.446,-128.569)"><text
                     transform="matrix(1,0,0,-1,119.446,128.569)"
                     style="font-variant:normal;font-weight:normal;font-size:9.9626px;font-family:CMMI10;-inkscape-font-specification:CMMI10;writing-mode:lr-tb;fill:#000000;fill-opacity:1;fill-rule:nonzero;stroke:none"
                     id="text162"><tspan
                       x="0"
                       y="0"
                       id="tspan160">C</tspan></text><text
                     transform="matrix(1,0,0,-1,126.567,127.075)"
                     style="font-variant:normal;font-weight:normal;font-size:6.9738px;font-family:CMR7;-inkscape-font-specification:CMR7;writing-mode:lr-tb;fill:#000000;fill-opacity:1;fill-rule:nonzero;stroke:none"
                     id="text166"><tspan
                       x="0"
                       y="0"
                       id="tspan164">1</tspan></text><g
                     id="g168"
                     transform="translate(119.446,128.569)" /></g></g><g
                 id="g170"
                 transform="translate(-111.036,-127.1)" /></g></g><g
             id="g172" /><g
             id="g174" /><g
             id="g176"><g
               id="g178"
               transform="matrix(-0.0051,-0.79994,0.79994,-0.0051,185.845,96.38)"><g
                 id="g180" /><g
                 id="g182"
                 transform="translate(-185.845,-96.38)" /></g></g><g
             id="g184" /><g
             id="g186" /><g
             id="g188" /><g
             id="g190" /><g
             id="g192"><path
               d="m 54.93466,90.71013 2.5483,4.76228 4.29956,-9.52458 4.29954,9.52458 4.29953,-9.52458 4.29955,9.52458 4.29956,-9.52458 2.14978,4.7623"
               style="fill:none;stroke:#000000;stroke-width:0.797;stroke-linecap:butt;stroke-linejoin:bevel;stroke-miterlimit:10;stroke-dasharray:none;stroke-opacity:1"
               id="path194" /><g
               id="g196"
               transform="matrix(0.8,0,0,0.8,68.032,90.709)"><g
                 id="g198" /><g
                 id="g200"
                 transform="translate(-68.032,-90.709)" /></g></g><g
             id="g202" /><g
             id="g204" /><g
             id="g206" /><g
             id="g208" /><g
             id="g210"><g
               id="g212"
               transform="matrix(0.8,0,0,0.8,63.229,99.18)"><g
                 id="g214"><g
                   id="g216"
                   transform="translate(-71.639,-100.649)"><text
                     transform="matrix(1,0,0,-1,71.639,100.649)"
                     style="font-variant:normal;font-weight:normal;font-size:9.9626px;font-family:CMMI10;-inkscape-font-specification:CMMI10;writing-mode:lr-tb;fill:#000000;fill-opacity:1;fill-rule:nonzero;stroke:none"
                     id="text220"><tspan
                       x="0"
                       y="0"
                       id="tspan218">R</tspan></text><text
                     transform="matrix(1,0,0,-1,79.203,99.155)"
                     style="font-variant:normal;font-weight:normal;font-size:6.9738px;font-family:CMR7;-inkscape-font-specification:CMR7;writing-mode:lr-tb;fill:#000000;fill-opacity:1;fill-rule:nonzero;stroke:none"
                     id="text224"><tspan
                       x="0"
                       y="0"
                       id="tspan222">2</tspan></text><g
                     id="g226"
                     transform="translate(71.639,100.649)" /></g></g><g
                 id="g228"
                 transform="translate(-63.229,-99.18)" /></g></g><g
             id="g230" /><g
             id="g232" /><g
             id="g234"><g
               id="g236" /><path
               d="M 100.23473,48.52983 H 81.18552 m 19.04921,-6.34956 H 81.18552"
               style="fill:none;stroke:#000000;stroke-width:0.797;stroke-linecap:butt;stroke-linejoin:miter;stroke-miterlimit:10;stroke-dasharray:none;stroke-opacity:1"
               id="path238" /><g
               id="g240"
               transform="matrix(0,-0.8,0.8,0,90.709,45.354)"><g
                 id="g242" /><g
                 id="g244"
                 transform="translate(-90.709,-45.354)" /></g></g><g
             id="g246" /><g
             id="g248" /><g
             id="g250" /><g
             id="g252"><g
               id="g254"
               transform="matrix(0.8,0,0,0.8,102.805,43.643)"><g
                 id="g256"><g
                   id="g258"
                   transform="translate(-111.215,-45.112)"><text
                     transform="matrix(1,0,0,-1,111.215,45.112)"
                     style="font-variant:normal;font-weight:normal;font-size:9.9626px;font-family:CMMI10;-inkscape-font-specification:CMMI10;writing-mode:lr-tb;fill:#000000;fill-opacity:1;fill-rule:nonzero;stroke:none"
                     id="text262"><tspan
                       x="0"
                       y="0"
                       id="tspan260">C</tspan></text><text
                     transform="matrix(1,0,0,-1,118.336,43.618)"
                     style="font-variant:normal;font-weight:normal;font-size:6.9738px;font-family:CMR7;-inkscape-font-specification:CMR7;writing-mode:lr-tb;fill:#000000;fill-opacity:1;fill-rule:nonzero;stroke:none"
                     id="text266"><tspan
                       x="0"
                       y="0"
                       id="tspan264">2</tspan></text><g
                     id="g268"
                     transform="translate(111.215,45.112)" /></g></g><g
                 id="g270"
                 transform="translate(-102.805,-43.643)" /></g></g><g
             id="g272" /><g
             id="g274" /><g
             id="g276"><g
               id="g278"
               transform="matrix(0.8,0,0,0.8,136.064,0)"><g
                 id="g280" /><g
                 id="g282"
                 transform="translate(-136.064)" /></g></g><g
             id="g284" /><g
             id="g286" /><g
             id="g288"><g
               id="g290"
               transform="scale(0.8)"><g
                 id="g292" /></g><g
               id="g294"><g
                 id="g296"><path
                   d="M 1.26971,0 C 1.26971,0.70125 0.70125,1.26971 0,1.26971 -0.70125,1.26971 -1.26971,0.70125 -1.26971,0 c 0,-0.70125 0.56846,-1.26971 1.26971,-1.26971 0.70125,0 1.26971,0.56846 1.26971,1.26971 z"
                   style="fill:#ffffff;fill-opacity:1;fill-rule:nonzero;stroke:#000000;stroke-width:0.3985;stroke-linecap:butt;stroke-linejoin:miter;stroke-miterlimit:10;stroke-dasharray:none;stroke-opacity:1"
                   id="path298" /></g></g></g><g
             id="g300"><g
               id="g302"
               transform="matrix(0.8,0,0,0.8,272.127,0)"><g
                 id="g304" /><g
                 id="g306"
                 transform="translate(-272.127)" /></g><g
               id="g308"><g
                 id="g310"><path
                   d="m 273.40012,0 c 0,0.70125 -0.56847,1.26971 -1.26972,1.26971 -0.70126,0 -1.26971,-0.56846 -1.26971,-1.26971 0,-0.70125 0.56845,-1.26971 1.26971,-1.26971 0.70125,0 1.26972,0.56846 1.26972,1.26971 z"
                   style="fill:#ffffff;fill-opacity:1;fill-rule:nonzero;stroke:#000000;stroke-width:0.3985;stroke-linecap:butt;stroke-linejoin:miter;stroke-miterlimit:10;stroke-dasharray:none;stroke-opacity:1"
                   id="path312" /></g></g></g><g
             id="g314" /><g
             id="g316" /><g
             id="g318"><g
               id="g320"
               transform="matrix(0.79994,-0.00433,0.00433,0.79994,111.235,90.598)"><g
                 id="g322" /><g
                 id="g324"
                 transform="translate(-111.235,-90.598)" /></g></g><g
             id="g326" /><g
             id="g328" /><g
             id="g330" /><g
             id="g332" /><g
             id="g334"><g
               id="g336"
               transform="matrix(-0.00653,-0.79993,0.79993,-0.00653,131.645,53.974)"><g
                 id="g338" /><g
                 id="g340"
                 transform="translate(-131.645,-53.974)" /></g></g><g
             id="g342" /><g
             id="g344" /><g
             id="g346" /><g
             id="g348" /><g
             id="g350"><g
               id="g352"
               transform="matrix(0.8,0,0,0.8,158.741,39.685)"><g
                 id="g354" /><g
                 id="g356"
                 transform="translate(-158.741,-39.685)" /></g></g><g
             id="g358" /><g
             id="g360" /><g
             id="g362" /><g
             id="g364" /><g
             id="g366"><path
               d="m 185.77545,72.6275 4.77588,-2.52203 -9.50032,-4.35133 9.54739,-4.24712 -9.50035,-4.35132 9.54741,-4.2471 -9.50032,-4.35135 4.7737,-2.12355"
               style="fill:none;stroke:#000000;stroke-width:0.797;stroke-linecap:butt;stroke-linejoin:bevel;stroke-miterlimit:10;stroke-dasharray:none;stroke-opacity:1"
               id="path368" /><g
               id="g370"
               transform="matrix(0.00438,-0.79994,0.79994,0.00438,185.845,59.53)"><g
                 id="g372" /><g
                 id="g374"
                 transform="translate(-185.845,-59.53)" /></g></g><g
             id="g376" /><g
             id="g378" /><g
             id="g380" /><g
             id="g382"><g
               id="g384"
               transform="matrix(0.8,0,0,0.8,192.712,57.849)"><g
                 id="g386"><g
                   id="g388"
                   transform="translate(-201.122,-59.318)"><text
                     transform="matrix(1,0,0,-1,201.122,59.318)"
                     style="font-variant:normal;font-weight:normal;font-size:9.9626px;font-family:CMR10;-inkscape-font-specification:CMR10;writing-mode:lr-tb;fill:#000000;fill-opacity:1;fill-rule:nonzero;stroke:none"
                     id="text392"><tspan
                       x="0 3.8744552"
                       y="0"
                       id="tspan390">(1</tspan></text><text
                     transform="matrix(1,0,0,-1,212.191,59.318)"
                     style="font-variant:normal;font-weight:normal;font-size:9.9626px;font-family:CMSY10;-inkscape-font-specification:CMSY10;writing-mode:lr-tb;fill:#000000;fill-opacity:1;fill-rule:nonzero;stroke:none"
                     id="text396"><tspan
                       x="0"
                       y="0"
                       id="tspan394">−</tspan></text><text
                     transform="matrix(1,0,0,-1,222.154,59.318)"
                     style="font-variant:normal;font-weight:normal;font-size:9.9626px;font-family:CMMI10;-inkscape-font-specification:CMMI10;writing-mode:lr-tb;fill:#000000;fill-opacity:1;fill-rule:nonzero;stroke:none"
                     id="text400"><tspan
                       x="0"
                       y="0"
                       id="tspan398">β</tspan></text><text
                     transform="matrix(1,0,0,-1,228.315,59.318)"
                     style="font-variant:normal;font-weight:normal;font-size:9.9626px;font-family:CMR10;-inkscape-font-specification:CMR10;writing-mode:lr-tb;fill:#000000;fill-opacity:1;fill-rule:nonzero;stroke:none"
                     id="text404"><tspan
                       x="0"
                       y="0"
                       id="tspan402">)</tspan></text><text
                     transform="matrix(1,0,0,-1,232.189,59.318)"
                     style="font-variant:normal;font-weight:normal;font-size:9.9626px;font-family:CMMI10;-inkscape-font-specification:CMMI10;writing-mode:lr-tb;fill:#000000;fill-opacity:1;fill-rule:nonzero;stroke:none"
                     id="text408"><tspan
                       x="0"
                       y="0"
                       id="tspan406">R</tspan></text><g
                     id="g410"
                     transform="translate(201.122,59.318)" /></g></g><g
                 id="g412"
                 transform="translate(-192.712,-57.849)" /></g></g><g
             id="g414" /><g
             id="g416" /><g
             id="g418"><path
               d="m 185.9557,32.94075 4.76229,-2.54829 -9.52459,-4.29956 9.52459,-4.29955 -9.52459,-4.29953 9.52459,-4.29955 -9.52459,-4.29956 4.7623,-2.14976"
               style="fill:none;stroke:#000000;stroke-width:0.797;stroke-linecap:butt;stroke-linejoin:bevel;stroke-miterlimit:10;stroke-dasharray:none;stroke-opacity:1"
               id="path420" /><g
               id="g422"
               transform="matrix(0,-0.8,0.8,0,185.953,19.843)"><g
                 id="g424" /><g
                 id="g426"
                 transform="translate(-185.953,-19.843)" /></g></g><g
             id="g428" /><g
             id="g430" /><g
             id="g432" /><g
             id="g434"><g
               id="g436"
               transform="matrix(0.8,0,0,0.8,192.821,18.129)"><g
                 id="g438"><g
                   id="g440"
                   transform="translate(-201.231,-19.598)"><text
                     transform="matrix(1,0,0,-1,201.231,19.598)"
                     style="font-variant:normal;font-weight:normal;font-size:9.9626px;font-family:CMMI10;-inkscape-font-specification:CMMI10;writing-mode:lr-tb;fill:#000000;fill-opacity:1;fill-rule:nonzero;stroke:none"
                     id="text444"><tspan
                       x="0 6.1628642"
                       y="0"
                       id="tspan442">βR</tspan></text><g
                     id="g446"
                     transform="translate(201.231,19.598)" /></g></g><g
                 id="g448"
                 transform="translate(-192.821,-18.129)" /></g></g><g
             id="g450" /><g
             id="g452" /><g
             id="g454"><g
               id="g456"
               transform="matrix(0.79999,-3e-5,3e-5,0.79999,228.932,79.372)"><g
                 id="g458" /><g
                 id="g460"
                 transform="translate(-228.932,-79.372)" /></g></g><g
             id="g462" /><g
             id="g464" /><g
             id="g466"><g
               id="g468"
               transform="matrix(0.8,0,0,0.8,272.127,79.37)"><g
                 id="g470" /><g
                 id="g472"
                 transform="translate(-272.127,-79.37)" /></g><g
               id="g474"><g
                 id="g476"><path
                   d="m 273.40012,79.37135 c 0,0.70125 -0.56847,1.26972 -1.26972,1.26972 -0.70126,0 -1.26971,-0.56847 -1.26971,-1.26972 0,-0.70126 0.56845,-1.26973 1.26971,-1.26973 0.70125,0 1.26972,0.56847 1.26972,1.26973 z"
                   style="fill:#ffffff;fill-opacity:1;fill-rule:nonzero;stroke:#000000;stroke-width:0.3985;stroke-linecap:butt;stroke-linejoin:miter;stroke-miterlimit:10;stroke-dasharray:none;stroke-opacity:1"
                   id="path478" /></g></g></g><g
             id="g480" /><g
             id="g482" /><g
             id="g484"><g
               id="g486"
               transform="matrix(0,-0.8,0.8,0,0,45.354)"><g
                 id="g488" /><g
                 id="g490"
                 transform="translate(0,-45.354)" /></g></g><g
             id="g492" /><g
             id="g494" /><g
             id="g496" /><g
             id="g498" /><g
             id="g500" /><g
             id="g502" /><g
             id="g504" /><g
             id="g506" /><g
             id="g508" /><g
             id="g510" /><g
             id="g512" /><g
             id="g514" /><g
             id="g516" /><g
             id="g518" /><g
             id="g520" /><g
             id="g522" /><g
             id="g524" /><g
             id="g526"><g
               id="g528"
               transform="matrix(0.8,0,0,0.8,-3.099,75.167)"><g
                 id="g530"><g
                   id="g532"
                   transform="translate(-5.311,-76.636)"><text
                     transform="matrix(1,0,0,-1,5.311,76.636)"
                     style="font-variant:normal;font-weight:normal;font-size:9.9626px;font-family:CMR10;-inkscape-font-specification:CMR10;writing-mode:lr-tb;fill:#000000;fill-opacity:1;fill-rule:nonzero;stroke:none"
                     id="text536"><tspan
                       x="0"
                       y="0"
                       id="tspan534">+</tspan></text><g
                     id="g538"
                     transform="translate(5.311,76.636)" /></g></g><g
                 id="g540"
                 transform="translate(3.099,-75.167)" /></g></g><g
             id="g542"><g
               id="g544"
               transform="matrix(0.8,0,0,0.8,-3.099,11.578)"><g
                 id="g546"><g
                   id="g548"
                   transform="translate(-5.311,-13.047)"><text
                     transform="matrix(1,0,0,-1,5.311,13.047)"
                     style="font-variant:normal;font-weight:normal;font-size:9.9626px;font-family:CMSY10;-inkscape-font-specification:CMSY10;writing-mode:lr-tb;fill:#000000;fill-opacity:1;fill-rule:nonzero;stroke:none"
                     id="text552"><tspan
                       x="0"
                       y="0"
                       id="tspan550">−</tspan></text><g
                     id="g554"
                     transform="translate(5.311,13.047)" /></g></g><g
                 id="g556"
                 transform="translate(3.099,-11.578)" /></g></g><g
             id="g558" /><g
             id="g560" /><g
             id="g562"><g
               id="g564"
               transform="matrix(0.8,0,0,0.8,-6.816,43.372)"><g
                 id="g566"><g
                   id="g568"
                   transform="translate(-1.594,-44.841)"><text
                     transform="matrix(1,0,0,-1,1.594,44.841)"
                     style="font-variant:normal;font-weight:normal;font-size:9.9626px;font-family:CMMI10;-inkscape-font-specification:CMMI10;writing-mode:lr-tb;fill:#000000;fill-opacity:1;fill-rule:nonzero;stroke:none"
                     id="text572"><tspan
                       x="0"
                       y="0"
                       id="tspan570">x</tspan></text><text
                     transform="matrix(1,0,0,-1,7.288,44.841)"
                     style="font-variant:normal;font-weight:normal;font-size:9.9626px;font-family:CMR10;-inkscape-font-specification:CMR10;writing-mode:lr-tb;fill:#000000;fill-opacity:1;fill-rule:nonzero;stroke:none"
                     id="text576"><tspan
                       x="0"
                       y="0"
                       id="tspan574">(</tspan></text><text
                     transform="matrix(1,0,0,-1,11.162,44.841)"
                     style="font-variant:normal;font-weight:normal;font-size:9.9626px;font-family:CMMI10;-inkscape-font-specification:CMMI10;writing-mode:lr-tb;fill:#000000;fill-opacity:1;fill-rule:nonzero;stroke:none"
                     id="text580"><tspan
                       x="0"
                       y="0"
                       id="tspan578">t</tspan></text><text
                     transform="matrix(1,0,0,-1,14.76,44.841)"
                     style="font-variant:normal;font-weight:normal;font-size:9.9626px;font-family:CMR10;-inkscape-font-specification:CMR10;writing-mode:lr-tb;fill:#000000;fill-opacity:1;fill-rule:nonzero;stroke:none"
                     id="text584"><tspan
                       x="0"
                       y="0"
                       id="tspan582">)</tspan></text><g
                     id="g586"
                     transform="translate(1.594,44.841)" /></g></g><g
                 id="g588"
                 transform="translate(6.816,-43.372)" /></g></g><g
             id="g590" /><g
             id="g592" /><g
             id="g594" /><g
             id="g596" /><g
             id="g598"><g
               id="g600"
               transform="matrix(0,-0.8,0.8,0,272.127,39.685)"><g
                 id="g602" /><g
                 id="g604"
                 transform="translate(-272.127,-39.685)" /></g></g><g
             id="g606" /><g
             id="g608" /><g
             id="g610" /><g
             id="g612" /><g
             id="g614" /><g
             id="g616" /><g
             id="g618" /><g
             id="g620" /><g
             id="g622" /><g
             id="g624" /><g
             id="g626" /><g
             id="g628" /><g
             id="g630" /><g
             id="g632" /><g
             id="g634" /><g
             id="g636" /><g
             id="g638" /><g
             id="g640"><g
               id="g642"
               transform="matrix(0.8,0,0,0.8,269.09,65.527)"><g
                 id="g644"><g
                   id="g646"
                   transform="translate(-277.5,-66.996)"><text
                     transform="matrix(1,0,0,-1,277.5,66.996)"
                     style="font-variant:normal;font-weight:normal;font-size:9.9626px;font-family:CMR10;-inkscape-font-specification:CMR10;writing-mode:lr-tb;fill:#000000;fill-opacity:1;fill-rule:nonzero;stroke:none"
                     id="text650"><tspan
                       x="0"
                       y="0"
                       id="tspan648">+</tspan></text><g
                     id="g652"
                     transform="translate(277.5,66.996)" /></g></g><g
                 id="g654"
                 transform="translate(-269.09,-65.527)" /></g></g><g
             id="g656"><g
               id="g658"
               transform="matrix(0.8,0,0,0.8,269.09,9.876)"><g
                 id="g660"><g
                   id="g662"
                   transform="translate(-277.5,-11.345)"><text
                     transform="matrix(1,0,0,-1,277.5,11.345)"
                     style="font-variant:normal;font-weight:normal;font-size:9.9626px;font-family:CMSY10;-inkscape-font-specification:CMSY10;writing-mode:lr-tb;fill:#000000;fill-opacity:1;fill-rule:nonzero;stroke:none"
                     id="text666"><tspan
                       x="0"
                       y="0"
                       id="tspan664">−</tspan></text><g
                     id="g668"
                     transform="translate(277.5,11.345)" /></g></g><g
                 id="g670"
                 transform="translate(-269.09,-9.876)" /></g></g><g
             id="g672" /><g
             id="g674" /><g
             id="g676"><g
               id="g678"
               transform="matrix(0.8,0,0,0.8,265.554,37.702)"><g
                 id="g680"><g
                   id="g682"
                   transform="translate(-273.964,-39.171)"><text
                     transform="matrix(1,0,0,-1,273.964,39.171)"
                     style="font-variant:normal;font-weight:normal;font-size:9.9626px;font-family:CMMI10;-inkscape-font-specification:CMMI10;writing-mode:lr-tb;fill:#000000;fill-opacity:1;fill-rule:nonzero;stroke:none"
                     id="text686"><tspan
                       x="0"
                       y="0"
                       id="tspan684">y</tspan></text><text
                     transform="matrix(1,0,0,-1,279.206,39.171)"
                     style="font-variant:normal;font-weight:normal;font-size:9.9626px;font-family:CMR10;-inkscape-font-specification:CMR10;writing-mode:lr-tb;fill:#000000;fill-opacity:1;fill-rule:nonzero;stroke:none"
                     id="text690"><tspan
                       x="0"
                       y="0"
                       id="tspan688">(</tspan></text><text
                     transform="matrix(1,0,0,-1,283.081,39.171)"
                     style="font-variant:normal;font-weight:normal;font-size:9.9626px;font-family:CMMI10;-inkscape-font-specification:CMMI10;writing-mode:lr-tb;fill:#000000;fill-opacity:1;fill-rule:nonzero;stroke:none"
                     id="text694"><tspan
                       x="0"
                       y="0"
                       id="tspan692">t</tspan></text><text
                     transform="matrix(1,0,0,-1,286.678,39.171)"
                     style="font-variant:normal;font-weight:normal;font-size:9.9626px;font-family:CMR10;-inkscape-font-specification:CMR10;writing-mode:lr-tb;fill:#000000;fill-opacity:1;fill-rule:nonzero;stroke:none"
                     id="text698"><tspan
                       x="0"
                       y="0"
                       id="tspan696">)</tspan></text><g
                     id="g700"
                     transform="translate(273.964,39.171)" /></g></g><g
                 id="g702"
                 transform="translate(-265.554,-37.702)" /></g></g><g
             id="g704" /><g
             id="g706" /></g></g></g></g></svg>
