<?xml version="1.0" encoding="UTF-8" standalone="no"?>
<!-- Created with Inkscape (http://www.inkscape.org/) -->

<svg
   version="1.1"
   id="svg2"
   xml:space="preserve"
   width="272.56934"
   height="252.67467"
   viewBox="0 0 272.56934 252.67467"
   xmlns="http://www.w3.org/2000/svg"
   xmlns:svg="http://www.w3.org/2000/svg"><defs
     id="defs6"><clipPath
       clipPathUnits="userSpaceOnUse"
       id="clipPath132"><path
         d="M 145.70183,0 H 339.97096 V 161.39682 H 145.70183 Z"
         id="path130" /></clipPath></defs><g
     id="g8"
     transform="matrix(1.3333333,0,0,-1.3333333,0,252.67467)"><g
       id="g10"
       transform="translate(6.84,27.912)"><g
         id="g12"><g
           id="g14"><g
             id="g16" /><g
             id="g18" /><g
             id="g20"><g
               id="g22" /></g><g
             id="g24" /><g
             id="g26" /><g
             id="g28" /><g
             id="g30" /><g
             id="g32"
             transform="translate(-6.84,-27.912)"><g
               id="g34"
               transform="translate(-138.86,27.912)"><g
                 id="g36"><g
                   id="g38"><g
                     id="g40"><g
                       id="g42"><g
                         id="g44"><path
                           d="M 145.70183,0 V 4.25029 M 194.26912,0 V 4.25029 M 242.8364,0 V 4.25029 M 291.40367,0 V 4.25029 M 339.97096,0 V 4.25029 M 145.70183,161.39682 v -4.25032 m 48.56729,4.25032 v -4.25032 m 48.56728,4.25032 v -4.25032 m 48.56727,4.25032 v -4.25032 m 48.56729,4.25032 v -4.25032"
                           style="fill:none;stroke:#808080;stroke-width:0.19925;stroke-linecap:butt;stroke-linejoin:miter;stroke-miterlimit:10;stroke-dasharray:none;stroke-opacity:1"
                           id="path46" /></g></g><g
                       id="g48"><g
                         id="g50"><path
                           d="m 145.70183,0 h 4.25177 m -4.25177,46.11337 h 4.25177 m -4.25177,46.11338 h 4.25177 m -4.25177,46.11337 h 4.25177 M 339.97096,0 h -4.25178 m 4.25178,46.11337 h -4.25178 m 4.25178,46.11338 h -4.25178 m 4.25178,46.11337 h -4.25178"
                           style="fill:none;stroke:#808080;stroke-width:0.19925;stroke-linecap:butt;stroke-linejoin:miter;stroke-miterlimit:10;stroke-dasharray:none;stroke-opacity:1"
                           id="path52" /></g></g><path
                       d="M 145.70183,0 V 161.39682 H 339.97096 V 0 Z"
                       style="fill:none;stroke:#000000;stroke-width:0.3985;stroke-linecap:butt;stroke-linejoin:miter;stroke-miterlimit:10;stroke-dasharray:none;stroke-opacity:1"
                       id="path54" /><g
                       id="g56"><g
                         id="g58"
                         transform="translate(145.7,-3.52)"><g
                           id="g60" /><g
                           id="g62"
                           transform="translate(-145.7,3.52)" /></g></g><g
                       id="g64"><g
                         id="g66"
                         transform="translate(194.267,-3.52)"><g
                           id="g68" /><g
                           id="g70"
                           transform="translate(-194.267,3.52)" /></g></g><g
                       id="g72"><g
                         id="g74"
                         transform="translate(242.834,-3.52)"><g
                           id="g76" /><g
                           id="g78"
                           transform="translate(-242.834,3.52)" /></g></g><g
                       id="g80"><g
                         id="g82"
                         transform="translate(291.4,-3.52)"><g
                           id="g84" /><g
                           id="g86"
                           transform="translate(-291.4,3.52)" /></g></g><g
                       id="g88"><g
                         id="g90"
                         transform="translate(339.967,-3.52)"><g
                           id="g92" /><g
                           id="g94"
                           transform="translate(-339.967,3.52)" /></g></g><g
                       id="g96"><g
                         id="g98"
                         transform="translate(142.18)"><g
                           id="g100" /><g
                           id="g102"
                           transform="translate(-142.18)" /></g></g><g
                       id="g104"><g
                         id="g106"
                         transform="translate(142.18,46.113)"><g
                           id="g108" /><g
                           id="g110"
                           transform="translate(-142.18,-46.113)" /></g></g><g
                       id="g112"><g
                         id="g114"
                         transform="translate(142.18,92.226)"><g
                           id="g116" /><g
                           id="g118"
                           transform="translate(-142.18,-92.226)" /></g></g><g
                       id="g120"><g
                         id="g122"
                         transform="translate(142.18,138.338)"><g
                           id="g124" /><g
                           id="g126"
                           transform="translate(-142.18,-138.338)" /></g></g><g
                       id="g128"
                       clip-path="url(#clipPath132)"><g
                         id="g134"><path
                           d="m 0,0.15549 9.9111,0.03518 9.91114,0.04291 9.91111,0.05313 9.91114,0.06473 9.91111,0.07951 9.91112,0.09781 9.91113,0.11963 9.91114,0.1467 9.9111,0.17978 9.91113,0.22095 9.91113,0.27053 9.91112,0.33213 9.91112,0.40704 9.91113,0.49959 9.91112,0.6111 9.91113,0.75183 9.91112,0.92001 9.91111,1.13004 9.91114,1.38617 9.91112,1.69961 9.91112,2.08275 9.91113,2.55525 9.91112,3.13399 9.91113,3.84221 9.91113,4.70766 9.91112,5.77789 9.91113,7.08594 9.91112,8.68989 9.91113,10.6576 9.91112,13.07 9.91113,16.0288 9.91112,19.65707 9.91114,24.10722 9.91111,29.56321 9.91112,36.25615 9.91113,44.46969 9.91112,54.53165 9.91112,66.86215 9.91113,82.02617 9.91112,100.57115 9.91113,123.34392 9.91112,151.25676 9.91111,185.52091 9.91114,227.5096 9.91113,278.9836 9.91112,342.1774 9.91111,419.6503 9.91114,514.623 9.91112,631.0843"
                           style="fill:none;stroke:#0000ff;stroke-width:0.79701;stroke-linecap:butt;stroke-linejoin:miter;stroke-miterlimit:10;stroke-dasharray:none;stroke-opacity:1"
                           id="path136" /></g><g
                         id="g138"><path
                           d="M 242.8364,0 V 161.39682"
                           style="fill:none;stroke:#000000;stroke-width:0.3985;stroke-linecap:butt;stroke-linejoin:miter;stroke-miterlimit:10;stroke-dasharray:none;stroke-opacity:1"
                           id="path140" /></g><g
                         id="g142"><path
                           d="M 145.70183,23.05669 H 339.97096"
                           style="fill:none;stroke:#000000;stroke-width:0.3985;stroke-linecap:butt;stroke-linejoin:miter;stroke-miterlimit:10;stroke-dasharray:none;stroke-opacity:1"
                           id="path144" /></g><g
                         id="g146"><g
                           id="g148"
                           transform="translate(231.481,35.785)"><g
                             id="g150"><g
                               id="g152"
                               transform="translate(-92.621,-63.697)"><text
                                 transform="matrix(1,0,0,-1,92.621,63.697)"
                                 style="font-variant:normal;font-weight:normal;font-size:9.9626px;font-family:CMMI10;-inkscape-font-specification:CMMI10;writing-mode:lr-tb;fill:#000000;fill-opacity:1;fill-rule:nonzero;stroke:none"
                                 id="text156"><tspan
                                   x="0"
                                   y="0"
                                   id="tspan154">C</tspan></text><g
                                 id="g158"
                                 transform="translate(92.621,63.697)" /></g></g><g
                             id="g160"
                             transform="translate(-231.481,-35.785)" /></g></g></g></g><g
                     id="g162"><g
                       id="g164"
                       transform="translate(241.035,-24.592)"><g
                         id="g166"><g
                           id="g168"
                           transform="translate(-102.175,-3.32)"><text
                             transform="matrix(1,0,0,-1,102.175,3.32)"
                             style="font-variant:normal;font-weight:normal;font-size:9.9626px;font-family:CMMI10;-inkscape-font-specification:CMMI10;writing-mode:lr-tb;fill:#000000;fill-opacity:1;fill-rule:nonzero;stroke:none"
                             id="text172"><tspan
                               x="0"
                               y="0"
                               id="tspan170">t</tspan></text><g
                             id="g174"
                             transform="translate(102.175,3.32)" /></g></g><g
                         id="g176"
                         transform="translate(-241.035,24.592)" /></g></g></g></g><g
                 id="g178"
                 transform="translate(138.86,-27.912)" /></g><g
               id="g180"
               transform="translate(6.84,27.912)" /></g><g
             id="g182" /><g
             id="g184" /></g></g></g></g></svg>
